<?xml version="1.0" encoding="UTF-8" standalone="no"?>
<svg
   xmlns:dc="http://purl.org/dc/elements/1.1/"
   xmlns:cc="http://creativecommons.org/ns#"
   xmlns:rdf="http://www.w3.org/1999/02/22-rdf-syntax-ns#"
   xmlns:svg="http://www.w3.org/2000/svg"
   xmlns="http://www.w3.org/2000/svg"
   xmlns:sodipodi="http://sodipodi.sourceforge.net/DTD/sodipodi-0.dtd"
   xmlns:inkscape="http://www.inkscape.org/namespaces/inkscape"
   width="210mm"
   height="297mm"
   viewBox="0 0 210 297"
   version="1.1"
   id="svg8"
   inkscape:version="1.0.1 (3bc2e813f5, 2020-09-07)"
   sodipodi:docname="spirala.svg">
  <defs
     id="defs2" />
  <sodipodi:namedview
     id="base"
     pagecolor="#ffffff"
     bordercolor="#666666"
     borderopacity="1.0"
     inkscape:pageopacity="0.0"
     inkscape:pageshadow="2"
     inkscape:zoom="0.7"
     inkscape:cx="374.56143"
     inkscape:cy="622.95022"
     inkscape:document-units="mm"
     inkscape:current-layer="layer1"
     inkscape:document-rotation="0"
     showgrid="false"
     inkscape:window-width="1920"
     inkscape:window-height="1175"
     inkscape:window-x="1920"
     inkscape:window-y="0"
     inkscape:window-maximized="1" />
  <metadata
     id="metadata5">
    <rdf:RDF>
      <cc:Work
         rdf:about="">
        <dc:format>image/svg+xml</dc:format>
        <dc:type
           rdf:resource="http://purl.org/dc/dcmitype/StillImage" />
        <dc:title></dc:title>
      </cc:Work>
    </rdf:RDF>
  </metadata>
  <g
     inkscape:label="Layer 1"
     inkscape:groupmode="layer"
     id="layer1">
    <path
       sodipodi:type="spiral"
       style="fill:none;fill-rule:evenodd;stroke:#000000;stroke-width:0.264583"
       id="path833"
       sodipodi:cx="91.202904"
       sodipodi:cy="143.55948"
       sodipodi:expansion="1"
       sodipodi:revolution="3"
       sodipodi:radius="75.470352"
       sodipodi:argument="-18.282036"
       sodipodi:t0="0"
       d="m 91.202904,143.55948 c 3.190776,2.03404 -1.167631,5.30463 -3.380711,5.30328 -5.99731,-0.004 -8.537255,-7.1221 -7.22585,-12.0647 2.345797,-8.84116 12.792312,-12.12884 20.748697,-9.14842 11.6763,4.37388 15.80494,18.53152 11.07099,29.43268 -6.30962,14.52953 -24.294193,19.51574 -38.116679,12.99356 -17.394187,-8.2075 -23.24422,-30.06778 -14.91613,-46.80066 10.086434,-20.26577 35.847472,-26.982892 55.484659,-16.8387 23.14174,11.95457 30.72794,41.63096 18.76127,64.16864 -13.816,26.02065 -47.416987,34.47727 -72.852641,20.68384 C 31.874902,175.61604 22.546945,138.08421 38.1701,109.75237 55.696918,77.968331 97.163996,67.76834 128.39072,85.223394 163.0583,104.60181 174.13085,150.00738 154.84227,184.128" />
  </g>
</svg>
